<?xml version="1.0" encoding="UTF-8"?>
<svg id="Layer_1" data-name="Layer 1" xmlns="http://www.w3.org/2000/svg" viewBox="0 0 15.1 7.84">
  <defs>
    <style>
      .cls-1 {
        fill: #26326d;
      }
    </style>
  </defs>
  <path class="cls-1" d="m8.26,2.07c-1.49,0-2.98,0-4.47,0-.21,0-.37.04-.51.2-.11.13-.25.24-.38.37-.07.07-.15.1-.26.1-.56,0-1.12,0-1.68,0-.1,0-.19-.01-.29-.02-.08,0-.09-.04-.04-.09.09-.09.18-.17.27-.26C1.65,1.61,2.41.86,3.16.11c.06-.06.12-.1.21-.1.06,0,.12,0,.17,0C7.26,0,10.99,0,14.71,0c.1,0,.2,0,.3,0,.03,0,.07,0,.08.02.02.04-.02.06-.04.08-.28.28-.57.56-.85.84-.35.34-.7.68-1.04,1.02-.07.07-.14.09-.23.09-1.55,0-3.11,0-4.66,0Z"/>
  <path class="cls-1" d="m7.94,5.28c-.6,0-1.19,0-1.79,0-.09,0-.15.03-.21.09-.77.77-1.54,1.53-2.3,2.31-.12.13-.25.16-.41.16-1.02,0-2.04,0-3.07,0-.03,0-.05,0-.08,0-.03,0-.07,0-.08-.03,0-.03.02-.05.03-.07.13-.13.27-.26.4-.38,1.08-1.07,2.16-2.14,3.24-3.21.34-.33.67-.66,1-1,.1-.1.2-.12.32-.11.11,0,.21.01.32.01,1.14,0,2.28,0,3.41,0,.26,0,.52,0,.78,0,.78,0,1.56-.01,2.34-.02.03,0,.07,0,.1,0,.03,0,.08,0,.09.03.02.04-.02.06-.04.09-.3.34-.63.65-.96.97-.36.35-.72.7-1.07,1.06-.08.08-.16.12-.27.11-.59,0-1.18,0-1.76,0Z"/>
</svg>